<svg style="position: absolute; width: 0; height: 0; overflow: hidden;" version="1.1" xmlns="http://www.w3.org/2000/svg" xmlns:xlink="http://www.w3.org/1999/xlink">
  <defs>

    <!-- social media-->

    <symbol id="icon-gmail" viewBox="0 0 38 32">
      <title>gmail</title>
      <path class="path1" d="M0 30.304v-28.704h5.92l0.288 0.256h26.4l0.288-0.256h5.568v28.8h-5.472v-0.224h-27.36v0.128h-5.632zM5.632 26.080v2.56h27.36v-2.368l-11.040-8.288-2.528 2.080-2.752-2.24zM5.632 24.16l9.824-7.328-9.824-8.064v15.392zM8.288 3.648l11.136 9.536 11.104-9.536h-22.24zM23.168 16.992l9.824 7.36v-15.488z"></path>
    </symbol>

    <symbol id="icon-mail" viewBox="0 0 32 32">
      <title>mail</title>
      <path class="path1" d="M29.728 26.848v-13.696q-0.576 0.64-1.248 1.152-4.768 3.68-7.616 6.048-0.896 0.768-1.472 1.184t-1.536 0.896-1.824 0.416h-0.064q-0.832 0-1.824-0.416t-1.536-0.896-1.472-1.184q-2.816-2.368-7.616-6.048-0.672-0.512-1.248-1.152v13.696q0 0.224 0.192 0.416t0.384 0.16h26.304q0.224 0 0.384-0.16t0.192-0.416zM29.728 8.096v-0.448t-0.032-0.224-0.032-0.224-0.096-0.16-0.16-0.128-0.256-0.064h-26.304q-0.224 0-0.384 0.192t-0.192 0.384q0 3.008 2.656 5.088 3.424 2.688 7.136 5.632 0.128 0.096 0.64 0.544t0.8 0.672 0.8 0.544 0.896 0.512 0.768 0.16h0.064q0.352 0 0.768-0.16t0.896-0.512 0.8-0.544 0.8-0.672 0.64-0.544q3.712-2.944 7.168-5.632 0.96-0.768 1.792-2.080t0.832-2.336zM32 7.424v19.424q0 1.184-0.832 2.016t-2.016 0.864h-26.304q-1.152 0-2.016-0.864t-0.832-2.016v-19.424q0-1.184 0.832-2.016t2.016-0.832h26.304q1.184 0 2.016 0.832t0.832 2.016z"></path>
    </symbol>

    <symbol id="icon-mail-1" viewBox="0 0 32 32">
      <title>mail</title>
      <path class="path1" d="M32 12.672v14.176q0 1.184-0.832 2.016t-2.016 0.864h-26.304q-1.152 0-2.016-0.864t-0.832-2.016v-14.176q0.8 0.864 1.792 1.568 6.464 4.384 8.896 6.144 1.024 0.768 1.632 1.184t1.696 0.864 1.952 0.416h0.064q0.896 0 1.952-0.416t1.696-0.864 1.632-1.184q3.040-2.176 8.896-6.144 1.024-0.704 1.792-1.568zM32 7.424q0 1.408-0.864 2.688t-2.176 2.208q-6.72 4.672-8.384 5.792-0.16 0.128-0.736 0.544t-0.96 0.704-0.928 0.576-1.024 0.48-0.896 0.16h-0.064q-0.384 0-0.864-0.16t-1.024-0.48-0.96-0.576-0.96-0.704-0.736-0.544q-1.632-1.12-4.704-3.232t-3.648-2.56q-1.12-0.736-2.080-2.048t-0.992-2.464q0-1.376 0.736-2.304t2.112-0.928h26.304q1.152 0 2.016 0.832t0.832 2.016z"></path>
    </symbol>

    <symbol id="icon-github" viewBox="0 0 30 32">
      <title>github</title>
      <path class="path1" d="M0 16q0 4.16 2.016 7.52 2.016 3.488 5.472 5.472t7.52 2.016q4.064 0 7.52-2.016 3.488-2.016 5.472-5.472t1.984-7.52q0-4.128-1.984-7.52-2.016-3.488-5.472-5.472t-7.52-1.984q-4.16 0-7.52 2.016-3.488 2.016-5.472 5.472t-2.016 7.488zM2.496 16q0-2.496 0.992-4.832t2.688-4q1.696-1.696 4-2.688t4.832-0.96 4.8 0.96 4.032 2.688q1.696 1.696 2.656 4t0.992 4.832q0 2.688-1.088 5.12t-3.104 4.224-4.544 2.56v-4.416q0-1.632-1.344-2.56 3.296-0.288 4.8-1.664t1.536-4.352q0-2.304-1.44-3.872 0.288-0.864 0.288-1.632 0-1.152-0.512-2.144-1.056 0-1.888 0.352t-2.016 1.184q-1.472-0.32-3.008-0.32-1.76 0-3.296 0.352-1.184-0.864-2.016-1.216t-1.952-0.352q-0.512 0.992-0.512 2.144 0 0.8 0.288 1.632-1.44 1.536-1.44 3.872 0 2.976 1.536 4.352t4.832 1.664q-0.864 0.608-1.216 1.728-0.768 0.256-1.6 0.256-0.608 0-1.088-0.256-0.128-0.096-0.256-0.16t-0.224-0.224-0.224-0.192-0.192-0.256-0.16-0.224-0.192-0.224-0.16-0.224q-0.736-0.96-1.76-0.96-0.544 0-0.544 0.224 0 0.096 0.288 0.32 0.48 0.416 0.512 0.448 0.384 0.32 0.416 0.384 0.448 0.576 0.704 1.248 0.864 1.952 2.976 1.952 0.352 0 1.344-0.16v3.296q-2.56-0.8-4.544-2.56t-3.072-4.224-1.12-5.12z"></path>
    </symbol>

    <symbol id="icon-github-1" viewBox="0 0 27 32">
      <title>github</title>
      <path class="path1" d="M13.728 2.272q3.712 0 6.88 1.856t4.992 4.992 1.824 6.88q0 4.48-2.624 8.064t-6.752 4.96q-0.48 0.096-0.704-0.128t-0.224-0.544q0-0.032 0-1.376t0-2.4q0-1.728-0.928-2.528 1.024-0.096 1.824-0.32t1.696-0.704 1.44-1.184 0.96-1.856 0.352-2.688q0-2.144-1.408-3.68 0.672-1.632-0.128-3.648-0.512-0.16-1.472 0.192t-1.632 0.8l-0.672 0.416q-1.664-0.48-3.424-0.48t-3.456 0.48q-0.256-0.192-0.736-0.48t-1.504-0.704-1.504-0.224q-0.8 2.016-0.16 3.648-1.408 1.536-1.408 3.68 0 1.504 0.384 2.656t0.928 1.888 1.44 1.184 1.664 0.704 1.824 0.32q-0.672 0.64-0.864 1.856-0.384 0.16-0.8 0.256t-1.024 0.096-1.152-0.384-0.992-1.12q-0.352-0.576-0.864-0.928t-0.896-0.448l-0.352-0.032q-0.384 0-0.512 0.064t-0.096 0.224 0.16 0.256 0.224 0.192l0.128 0.096q0.384 0.192 0.768 0.672t0.576 0.928l0.192 0.416q0.224 0.672 0.768 1.088t1.184 0.544 1.248 0.096 0.992-0.032l0.416-0.096q0 0.704 0 1.6t0.032 0.96q0 0.32-0.256 0.544t-0.704 0.128q-4.128-1.376-6.752-4.96t-2.624-8.064q0-3.744 1.856-6.88t4.96-4.992 6.912-1.856zM5.184 21.984q0.064-0.128-0.096-0.224-0.192-0.032-0.256 0.032-0.032 0.128 0.128 0.224t0.224-0.032zM5.76 22.592q0.128-0.096-0.032-0.288-0.192-0.16-0.288-0.064-0.128 0.096 0.032 0.288t0.288 0.064zM6.272 23.392q0.192-0.128 0-0.352-0.128-0.224-0.288-0.096-0.16 0.096 0 0.32t0.288 0.128zM7.040 24.128q0.128-0.128-0.064-0.32-0.224-0.224-0.352-0.064-0.16 0.16 0.064 0.352 0.192 0.192 0.352 0.032zM8.064 24.576q0.032-0.192-0.256-0.288-0.256-0.064-0.32 0.128t0.224 0.288q0.256 0.096 0.352-0.128zM9.184 24.672q0-0.224-0.32-0.192-0.288 0-0.288 0.192 0 0.224 0.32 0.192 0.288 0 0.288-0.192zM10.208 24.512q-0.032-0.224-0.32-0.16-0.288 0.032-0.256 0.256t0.32 0.128 0.256-0.224z"></path>
    </symbol>

    <symbol id="icon-facebook-circle" viewBox="0 0 18 32">
      <title>facebook</title>
      <path class="path1" d="M17.12 0.224v4.704h-2.784q-1.536 0-2.080 0.64t-0.544 1.92v3.392h5.248l-0.704 5.28h-4.544v13.568h-5.472v-13.568h-4.544v-5.28h4.544v-3.904q0-3.328 1.856-5.152t4.96-1.824q2.624 0 4.064 0.224z"></path>
    </symbol>

    <symbol id="icon-facebook-sqaure" viewBox="0 0 27 32">
      <title>facebook</title>
      <path class="path1" d="M25.92 2.272q0.608 0 1.056 0.448t0.448 1.088v24.384q0 0.64-0.448 1.088t-1.056 0.448h-6.976v-10.656h3.552l0.512-4.128h-4.064v-2.656q0-0.992 0.416-1.472t1.632-0.512l2.176-0.032v-3.68q-1.12-0.16-3.2-0.16-2.4 0-3.872 1.408t-1.44 4.064v3.040h-3.584v4.128h3.584v10.656h-13.152q-0.608 0-1.056-0.448t-0.448-1.088v-24.384q0-0.64 0.448-1.088t1.056-0.448h24.416z"></path>
    </symbol>

    <symbol id="icon-google" viewBox="0 0 27 32">
      <title>google</title>
      <path class="path1" d="M13.728 14.048h12.928q0.224 1.184 0.224 2.272 0 3.872-1.632 6.912t-4.64 4.768-6.88 1.728q-2.816 0-5.344-1.088t-4.384-2.912-2.912-4.384-1.088-5.344 1.088-5.344 2.912-4.384 4.384-2.912 5.344-1.088q5.344 0 9.184 3.616l-3.744 3.584q-2.176-2.144-5.44-2.144-2.304 0-4.256 1.184t-3.104 3.136-1.152 4.352 1.152 4.352 3.104 3.136 4.256 1.184q1.536 0 2.848-0.448t2.144-1.056 1.472-1.472 0.896-1.568 0.416-1.376h-7.776v-4.704z"></path>
    </symbol>

    <symbol id="icon-twitter" viewBox="0 0 30 32">
      <title>twitter</title>
      <path class="path1" d="M28.928 7.296q-1.184 1.728-2.88 2.976 0 0.256 0 0.736 0 2.336-0.672 4.64t-2.048 4.448-3.296 3.744-4.608 2.624-5.792 0.96q-4.832 0-8.832-2.592 0.608 0.064 1.376 0.064 4.032 0 7.168-2.464-1.888-0.032-3.36-1.152t-2.048-2.848q0.608 0.096 1.088 0.096 0.768 0 1.536-0.192-2.016-0.416-3.328-1.984t-1.312-3.68v-0.064q1.216 0.672 2.624 0.736-1.184-0.8-1.888-2.048t-0.704-2.752q0-1.568 0.8-2.912 2.176 2.656 5.248 4.256t6.656 1.76q-0.16-0.672-0.16-1.312 0-2.4 1.696-4.064t4.064-1.696q2.528 0 4.224 1.824 1.952-0.384 3.68-1.408-0.672 2.048-2.56 3.2 1.664-0.192 3.328-0.896z"></path>
    </symbol>

    <symbol id="icon-explorer" viewBox="0 0 32 32">
      <title>explorer</title>
      <path class="path1" d="M17.466 20.376l5.436 10.492h-1.673l-5.854-11.18-5.734 11.18h-1.613l5.973-11.982-2.569-1.032 0.657-1.548 8.004 3.268-0.717 1.605zM4.623 1.399l10.155 4.185-4.361 9.689-10.095-4.128zM16.092 7.304l8.004 3.325-3.405 7.625-8.004-3.268zM25.47 12.12l6.391 2.58-2.748 6.077-6.332-2.58zM41.897 16.133q0-5.103-2.091-9.746t-5.615-7.969-8.303-5.389-10.155-2.007-10.155 2.007-8.303 5.389-5.615 7.969-2.031 9.747 2.031 9.746 5.615 7.969 8.303 5.389 10.155 2.007 10.155-2.007 8.303-5.389 5.615-7.969 2.091-9.747zM45.6 16.133q0 5.848-2.389 11.123t-6.332 9.173-9.557 6.077-11.588 2.293-11.588-2.293-9.557-6.077-6.332-9.173-2.389-11.123 2.389-11.123 6.332-9.173 9.557-6.077 11.588-2.293 11.588 2.293 9.557 6.077 6.332 9.173 2.389 11.122z"></path>
    </symbol>

    <!-- navigation -->

    <symbol id="icon-logout" viewBox="0 0 30 32">
      <title>logout</title>
      <path class="path1" d="M11.424 25.728q0 0.064 0.032 0.352t0 0.448-0.064 0.448-0.16 0.352-0.384 0.096h-5.696q-2.144 0-3.648-1.504t-1.504-3.648v-12.544q0-2.144 1.504-3.648t3.648-1.504h5.696q0.256 0 0.416 0.16t0.16 0.416q0 0.064 0.032 0.352t0 0.48-0.064 0.416-0.16 0.352-0.384 0.096h-5.696q-1.184 0-2.016 0.832t-0.864 2.048v12.544q0 1.184 0.864 2.016t2.016 0.864h5.568t0.192 0 0.224 0.064 0.128 0.096 0.128 0.16 0.032 0.256zM28 16q0 0.448-0.352 0.8l-9.696 9.728q-0.352 0.32-0.8 0.32t-0.8-0.32-0.352-0.8v-5.152h-8q-0.448 0-0.8-0.352t-0.352-0.8v-6.848q0-0.48 0.352-0.8t0.8-0.352h8v-5.152q0-0.448 0.352-0.8t0.8-0.32 0.8 0.32l9.696 9.728q0.352 0.32 0.352 0.8z"></path>
    </symbol>

    <symbol id="icon-logout-1" viewBox="0 0 30 32">
      <title>logout</title>
      <path class="path1" d="M0 24.512q0 2.688 1.888 4.576t4.608 1.92h2.304q1.056 0 1.824-0.768t0.736-1.824-0.736-1.824-1.824-0.736h-2.304q-0.576 0-0.96-0.416t-0.384-0.928v-17.024q0-0.544 0.384-0.928t0.96-0.416h2.304q1.056 0 1.824-0.736t0.736-1.824-0.736-1.824-1.824-0.736h-2.304q-2.688 0-4.608 1.888t-1.888 4.576v17.024zM7.616 16.448q0-1.056 0.768-1.824t1.824-0.736h11.008l-3.52-3.552q-0.768-0.736-0.768-1.824t0.768-1.824q0.736-0.736 1.824-0.736t1.792 0.736l7.936 7.936q0.736 0.768 0.736 1.824t-0.736 1.824l-7.776 7.744q-0.736 0.736-1.824 0.736t-1.824-0.736-0.736-1.824 0.768-1.824l3.36-3.36h-11.008q-1.056 0-1.824-0.736t-0.768-1.824z"></path>
    </symbol>

    <symbol id="icon-more-options" viewBox="0 0 32 32">
      <title>options</title>
      <path class="path1" d="M16 10.667c1.467 0 2.667-1.2 2.667-2.667s-1.2-2.667-2.667-2.667-2.667 1.2-2.667 2.667 1.2 2.667 2.667 2.667zM16 13.333c-1.467 0-2.667 1.2-2.667 2.667s1.2 2.667 2.667 2.667 2.667-1.2 2.667-2.667-1.2-2.667-2.667-2.667zM16 21.333c-1.467 0-2.667 1.2-2.667 2.667s1.2 2.667 2.667 2.667 2.667-1.2 2.667-2.667-1.2-2.667-2.667-2.667z"></path>
    </symbol>


    <!-- user interaction -->

    <symbol id="icon-upload-cloud" viewBox="0 0 32 32">
      <title>upload-cloud</title>
      <path class="path1" d="M25.8 13.387c-0.907-4.6-4.947-8.053-9.8-8.053-3.853 0-7.2 2.187-8.867 5.387-4.013 0.427-7.133 3.827-7.133 7.947 0 4.413 3.587 8 8 8h17.333c3.68 0 6.667-2.987 6.667-6.667 0-3.52-2.733-6.373-6.2-6.613zM18.667 17.333v5.333h-5.333v-5.333h-4l6.667-6.667 6.667 6.667h-4z"></path>
    </symbol>

    <symbol id="icon-copy" viewBox="0 0 32 32">
      <title>copy</title>
      <path class="path1" d="M21.333 1.333h-16c-1.467 0-2.667 1.2-2.667 2.667v18.667h2.667v-18.667h16v-2.667zM25.333 6.667h-14.667c-1.467 0-2.667 1.2-2.667 2.667v18.667c0 1.467 1.2 2.667 2.667 2.667h14.667c1.467 0 2.667-1.2 2.667-2.667v-18.667c0-1.467-1.2-2.667-2.667-2.667zM25.333 28h-14.667v-18.667h14.667v18.667z"></path>
    </symbol>

    <symbol id="icon-edit" viewBox="0 0 32 32">
      <title>edit</title>
      <path class="path1" d="M15.872 21.152l2.048-2.080-2.72-2.72-2.048 2.080v0.992h1.696v1.728h1.024zM23.712 8.288q-0.288-0.288-0.576 0l-6.272 6.272q-0.288 0.288 0 0.576t0.576 0l6.272-6.272q0.288-0.288 0-0.576zM25.152 18.88v3.392q0 2.144-1.504 3.648t-3.648 1.504h-14.848q-2.144 0-3.648-1.504t-1.504-3.648v-14.848q0-2.112 1.504-3.616t3.648-1.536h14.848q1.12 0 2.080 0.448 0.288 0.128 0.32 0.416 0.064 0.32-0.16 0.512l-0.864 0.896q-0.256 0.256-0.576 0.128-0.416-0.096-0.8-0.096h-14.848q-1.184 0-2.016 0.832t-0.864 2.016v14.848q0 1.184 0.864 2.016t2.016 0.864h14.848q1.184 0 2.016-0.864t0.832-2.016v-2.24q0-0.224 0.16-0.384l1.152-1.152q0.256-0.256 0.64-0.128t0.352 0.512zM23.424 5.728l5.152 5.12-12 12h-5.152v-5.12zM31.36 8.064l-1.632 1.664-5.152-5.152 1.632-1.664q0.512-0.48 1.216-0.48t1.216 0.48l2.72 2.72q0.512 0.512 0.512 1.216t-0.512 1.216z"></path>
    </symbol>

    <symbol id="icon-cancel" viewBox="0 0 32 32">
      <title>cancel</title>
      <path class="path1" d="M0 24.928l8.928-8.928-8.928-8.928 7.072-7.072 8.928 8.928 8.928-8.928 7.072 7.072-8.928 8.928 8.928 8.928-7.072 7.072-8.928-8.928-8.928 8.928z"></path>
    </symbol>

    <symbol id="icon-check-empty" viewBox="0 0 25 32">
      <title>check-empty</title>
      <path class="path1" d="M20 4.576h-14.848q-1.184 0-2.016 0.832t-0.864 2.016v14.848q0 1.184 0.864 2.016t2.016 0.864h14.848q1.184 0 2.016-0.864t0.832-2.016v-14.848q0-1.184-0.832-2.016t-2.016-0.832zM25.152 7.424v14.848q0 2.144-1.504 3.648t-3.648 1.504h-14.848q-2.144 0-3.648-1.504t-1.504-3.648v-14.848q0-2.112 1.504-3.616t3.648-1.536h14.848q2.112 0 3.648 1.536t1.504 3.616z"></path>
    </symbol>

    <symbol id="icon-check" viewBox="0 0 30 32">
      <title>check</title>
      <path class="path1" d="M25.152 16.608v5.664q0 2.144-1.504 3.648t-3.648 1.504h-14.848q-2.144 0-3.648-1.504t-1.504-3.648v-14.848q0-2.112 1.504-3.616t3.648-1.536h14.848q1.12 0 2.080 0.448 0.288 0.128 0.32 0.416 0.064 0.32-0.16 0.512l-0.864 0.896q-0.192 0.16-0.416 0.16-0.032 0-0.16-0.032-0.416-0.096-0.8-0.096h-14.848q-1.184 0-2.016 0.832t-0.864 2.016v14.848q0 1.184 0.864 2.016t2.016 0.864h14.848q1.184 0 2.016-0.864t0.832-2.016v-4.512q0-0.256 0.16-0.416l1.152-1.12q0.192-0.192 0.416-0.192 0.096 0 0.224 0.064 0.352 0.128 0.352 0.512zM29.28 7.872l-14.56 14.528q-0.416 0.448-0.992 0.448t-1.024-0.448l-7.68-7.68q-0.448-0.416-0.448-0.992t0.448-1.024l1.952-1.984q0.448-0.416 1.024-0.416t1.024 0.416l4.704 4.704 11.552-11.552q0.416-0.416 0.992-0.416t1.024 0.416l1.984 1.952q0.416 0.448 0.416 1.024t-0.416 1.024z"></path>
    </symbol>

    <symbol id="icon-pencil" viewBox="0 0 27 32">
      <title>pencil</title>
      <path class="path1" d="M6.496 27.424l1.6-1.632-4.192-4.192-1.632 1.632v1.92h2.304v2.272h1.92zM15.808 10.848q0-0.384-0.384-0.384-0.16 0-0.288 0.128l-9.696 9.664q-0.128 0.128-0.128 0.32 0 0.384 0.416 0.384 0.16 0 0.288-0.128l9.696-9.664q0.096-0.128 0.096-0.32zM14.848 7.424l7.424 7.424-14.848 14.88h-7.424v-7.456zM27.040 9.152q0 0.928-0.64 1.6l-2.976 2.976-7.424-7.456 2.976-2.944q0.64-0.672 1.6-0.672 0.928 0 1.632 0.672l4.192 4.192q0.64 0.704 0.64 1.632z"></path>
    </symbol>

    <symbol id="icon-pencil-1" viewBox="0 0 25 32">
      <title>pencil-1</title>
      <path class="path1" d="M22.976 5.44q1.024 1.024 1.504 2.048t0.48 1.536v0.512l-8.064 8.064-9.28 9.216-7.616 1.664 1.6-7.68 9.28-9.216 8.064-8.064q1.728-0.384 4.032 1.92zM7.168 25.92l0.768-0.768q-0.064-1.408-1.664-3.008-0.704-0.704-1.44-1.12t-1.12-0.416l-0.448-0.064-0.704 0.768-0.576 2.56q0.896 0.512 1.472 1.088 0.768 0.768 1.152 1.536z"></path>
    </symbol>

    <symbol id="icon-trash" viewBox="0 0 25 32">
      <title>trash</title>
      <path class="path1" d="M9.152 13.152v10.272q0 0.256-0.16 0.416t-0.416 0.16h-1.152q-0.256 0-0.416-0.16t-0.16-0.416v-10.272q0-0.256 0.16-0.416t0.416-0.16h1.152q0.256 0 0.416 0.16t0.16 0.416zM13.728 13.152v10.272q0 0.256-0.16 0.416t-0.416 0.16h-1.152q-0.256 0-0.416-0.16t-0.16-0.416v-10.272q0-0.256 0.16-0.416t0.416-0.16h1.152q0.256 0 0.416 0.16t0.16 0.416zM18.272 13.152v10.272q0 0.256-0.16 0.416t-0.384 0.16h-1.152q-0.256 0-0.416-0.16t-0.16-0.416v-10.272q0-0.256 0.16-0.416t0.416-0.16h1.152q0.224 0 0.384 0.16t0.16 0.416zM20.576 26.080v-16.928h-16v16.928q0 0.384 0.128 0.704t0.256 0.48 0.192 0.16h14.848q0.064 0 0.192-0.16t0.256-0.48 0.128-0.704zM8.576 6.848h8l-0.864-2.080q-0.128-0.16-0.288-0.192h-5.664q-0.192 0.032-0.32 0.192zM25.152 7.424v1.152q0 0.256-0.16 0.416t-0.416 0.16h-1.728v16.928q0 1.472-0.832 2.56t-2.016 1.088h-14.848q-1.184 0-2.016-1.056t-0.864-2.528v-16.992h-1.696q-0.256 0-0.416-0.16t-0.16-0.416v-1.152q0-0.256 0.16-0.416t0.416-0.16h5.504l1.248-2.976q0.288-0.672 0.992-1.12t1.408-0.48h5.696q0.736 0 1.408 0.48t0.96 1.12l1.248 2.976h5.536q0.256 0 0.416 0.16t0.16 0.416z"></path>
    </symbol>

    <symbol id="icon-trash_1" viewBox="0 0 26 32">
      <title>trash</title>
      <path class="path1" d="M0 6.944v-4.512h9.248v-2.432h7.872v2.432h9.248v4.512h-26.368zM1.376 32v-21.632h23.616v21.632h-23.616z"></path>
    </symbol>

    <symbol id="icon-docs" viewBox="0 0 32 32">
      <title>docs</title>
      <path class="path1" d="M30.272 6.848q0.736 0 1.216 0.512t0.512 1.216v21.696q0 0.736-0.512 1.216t-1.216 0.512h-17.12q-0.736 0-1.216-0.512t-0.512-1.216v-5.12h-9.696q-0.736 0-1.216-0.512t-0.512-1.216v-12q0-0.704 0.352-1.568t0.864-1.344l7.296-7.296q0.48-0.512 1.344-0.864t1.568-0.352h7.424q0.736 0 1.216 0.512t0.512 1.216v5.856q1.216-0.736 2.272-0.736h7.424zM20.576 10.656l-5.344 5.344h5.344v-5.344zM9.152 3.808l-5.344 5.344h5.344v-5.344zM12.64 15.36l5.632-5.632v-7.456h-6.848v7.456q0 0.704-0.48 1.184t-1.216 0.512h-7.456v11.424h9.152v-4.576q0-0.704 0.352-1.568t0.864-1.344zM29.728 29.728v-20.576h-6.88v7.424q0 0.704-0.48 1.216t-1.216 0.48h-7.424v11.456h16z"></path>
    </symbol>

  </defs>
</svg>